<svg width="54" height="65" viewBox="0 0 54 65" fill="none" xmlns="http://www.w3.org/2000/svg">
<path id="document-download" fill-rule="evenodd" clip-rule="evenodd" d="M25.5789 53.0833L16.3421 45.2593L14.2105 47.0648L27 57.8981L39.7895 47.0648L37.6579 45.2593L28.4211 53.0833V26.4815H25.5789V53.0833ZM35.5263 0H5.69205C2.54842 0 0 2.16267 0 4.83246V60.1675C0 62.8364 2.5321 65 5.67688 65H48.3231C51.4584 65 54 62.8376 54 60.2073V18.0556V16.8519L36.9474 0H35.5263ZM34.1053 2.40741H5.67164C4.10893 2.40741 2.84211 3.50341 2.84211 4.80388V60.1961C2.84211 61.5197 4.13444 62.5926 5.6841 62.5926H48.3159C49.8855 62.5926 51.1579 61.5214 51.1579 60.2011V19.2593H39.7835C36.6475 19.2593 34.1053 17.125 34.1053 14.4302V2.40741ZM36.9474 3.61111V14.4233C36.9474 15.7646 38.2282 16.8519 39.7802 16.8519H50.3051L36.9474 3.61111Z" fill="black"/>
</svg>
