<svg width="90" height="90" viewBox="0 0 90 90" fill="none" xmlns="http://www.w3.org/2000/svg">
<g id="15860344541683177329 1">
<g id="Layer_x0020_1">
<path id="Vector" fill-rule="evenodd" clip-rule="evenodd" d="M14.2004 21.1616L58.7257 0.151878C59.7383 -0.329067 60.9027 0.417664 60.9027 1.53143V11.8971L67.7498 10.5428C68.6864 10.353 69.5723 11.087 69.5723 12.0489V21.035H75.1791C76.0271 21.035 76.7106 21.7185 76.7106 22.5664V88.4686C76.7106 89.3166 76.0271 90 75.1791 90H14.8205C13.9852 90 13.3018 89.3166 13.3018 88.4686V22.5664C13.3018 21.9336 13.6435 21.4274 14.2004 21.1616ZM68.0409 24.0852H16.352V86.9498H73.6477V24.0852H68.0409ZM66.3323 54.3215H23.68C22.8321 54.3215 22.1486 53.638 22.1486 52.8027V29.4769C22.1486 28.6415 22.8321 27.9581 23.68 27.9581H66.3323C67.1676 27.9581 67.851 28.6415 67.851 29.4769V52.8027C67.851 53.638 67.1676 54.3215 66.3323 54.3215ZM25.1988 51.2713H64.8008V31.0083H25.1988V51.2713ZM59.713 61.4597H30.2867C29.4514 61.4597 28.7679 60.7763 28.7679 59.9283C28.7679 59.093 29.4514 58.4095 30.2867 58.4095H59.713C60.5483 58.4095 61.2317 59.093 61.2317 59.9283C61.2317 60.7763 60.5483 61.4597 59.713 61.4597ZM66.3323 68.5979H23.68C22.8321 68.5979 22.1486 67.9145 22.1486 67.0665C22.1486 66.2185 22.8321 65.5351 23.68 65.5351H66.3323C67.1676 65.5351 67.851 66.2185 67.851 67.0665C67.851 67.9145 67.1676 68.5979 66.3323 68.5979ZM66.3323 75.7362H23.68C22.8321 75.7362 22.1486 75.0527 22.1486 74.2048C22.1486 73.3568 22.8321 72.6733 23.68 72.6733H66.3323C67.1676 72.6733 67.851 73.3568 67.851 74.2048C67.851 75.0527 67.1676 75.7362 66.3323 75.7362ZM66.3323 82.8618H23.68C22.8321 82.8618 22.1486 82.1783 22.1486 81.343C22.1486 80.495 22.8321 79.8116 23.68 79.8116H66.3323C67.1676 79.8116 67.851 80.495 67.851 81.343C67.851 82.1783 67.1676 82.8618 66.3323 82.8618ZM30.4386 21.035H66.5095V13.9094L30.4386 21.035ZM26.6543 18.6683L57.8525 12.5046V3.93616L26.6543 18.6683Z" fill="black"/>
</g>
</g>
</svg>
