<svg width="63" height="63" viewBox="0 0 63 63" fill="none" xmlns="http://www.w3.org/2000/svg">
<g id="17624816851535958156 4">
<g id="Group">
<path id="Vector" d="M43.875 30.3173L25.0221 18.063C24.7324 17.8745 24.3623 17.8606 24.0587 18.0247C23.7552 18.1899 23.5654 18.5079 23.5654 18.8529V43.3616C23.5654 43.7073 23.7546 44.0253 24.0587 44.1899C24.1995 44.266 24.3541 44.3043 24.5081 44.3043C24.6872 44.3043 24.8663 44.2534 25.0215 44.1522L43.8744 31.8978C44.1421 31.7244 44.3036 31.4265 44.3036 31.1073C44.3036 30.788 44.1427 30.4908 43.875 30.3173ZM25.4513 41.6253V20.5899L41.6321 31.1073L25.4513 41.6253Z" fill="white"/>
<path id="Vector_2" d="M31.1074 4.08484C16.2074 4.08484 4.08496 16.2072 4.08496 31.1073C4.08496 46.0073 16.2074 58.1297 31.1074 58.1297C46.0075 58.1297 58.1298 46.0073 58.1298 31.1073C58.1298 16.2072 46.0075 4.08484 31.1074 4.08484ZM31.1074 56.2444C17.2468 56.2444 5.97025 44.9679 5.97025 31.1073C5.97025 17.2467 17.2468 5.97013 31.1074 5.97013C44.968 5.97013 56.2446 17.2467 56.2446 31.1073C56.2446 44.9679 44.968 56.2444 31.1074 56.2444Z" fill="white"/>
</g>
</g>
</svg>
