<svg width="120" height="120" viewBox="0 0 120 120" fill="none" xmlns="http://www.w3.org/2000/svg">
<g id="6424145721650352551 1">
<g id="B_-_147_x2C__team_x2C__Business_x2C__communication_x2C__hierarchy_x2C__people_x2C__social_x2C__structure">
<g id="Group">
<g id="Group_2">
<path id="Vector" d="M68.3388 101.269H72.7553C73.3036 101.269 73.7484 100.824 73.7484 100.276C73.7484 99.7271 73.3036 99.2826 72.7553 99.2826H68.3388C67.7902 99.2826 67.3457 99.7271 67.3457 100.276C67.3457 100.824 67.7905 101.269 68.3388 101.269Z" fill="white" stroke="white" stroke-width="0.3"/>
</g>
<g id="Group_3">
<path id="Vector_2" d="M68.3388 104.03H72.7553C73.3036 104.03 73.7484 103.586 73.7484 103.037C73.7484 102.489 73.3036 102.044 72.7553 102.044H68.3388C67.7902 102.044 67.3457 102.489 67.3457 103.037C67.3457 103.586 67.7905 104.03 68.3388 104.03Z" fill="white" stroke="white" stroke-width="0.3"/>
</g>
<g id="Group_4">
<path id="Vector_3" d="M51.6853 86.9196L51.6853 86.9196C49.6685 88.0755 47.9806 88.9772 46.6227 89.7027L46.6159 89.7063C44.9238 90.6103 43.6331 91.315 42.6554 91.9954C41.6753 92.6774 40.9998 93.3416 40.5441 94.1695C40.0891 94.9961 39.8608 95.9724 39.7515 97.2658C39.6424 98.5577 39.6512 100.179 39.6788 102.3L39.6788 102.301C39.6945 103.511 39.7123 104.882 39.7123 106.471C39.7123 106.932 40.0306 107.333 40.4803 107.438L40.5143 107.292C46.8881 108.774 53.3958 109.526 59.8561 109.526C66.3155 109.526 72.9148 108.775 79.4698 107.293L79.5028 107.439C79.5028 107.439 79.5029 107.439 79.5029 107.439C79.9557 107.337 80.277 106.935 80.277 106.471C80.277 104.944 80.2935 103.617 80.3081 102.443L80.3088 102.379C80.3359 100.219 80.3483 98.5752 80.2417 97.2701C80.1351 95.9636 79.9084 94.9827 79.4487 94.153C78.9883 93.3222 78.3021 92.6569 77.301 91.9678C76.3024 91.2803 74.9797 90.5621 73.2399 89.6307L73.1691 89.7629L73.2399 89.6307C71.912 88.9198 70.2612 88.0362 68.3069 86.9191C67.8395 86.6519 67.2445 86.8056 66.9655 87.2662L62.5698 94.5063L60.6728 92.7437C60.2819 92.3804 59.6739 92.3912 59.296 92.7677L59.296 92.7678L57.1885 94.8682L53.0502 87.3043L53.0502 87.3042C52.9221 87.0704 52.7054 86.8979 52.4487 86.8253L52.4486 86.8253C52.1917 86.7529 51.9166 86.7872 51.6853 86.9196ZM51.7926 89.1435L56.0816 96.9826L56.0816 96.9827C56.2314 97.2562 56.5013 97.4439 56.8102 97.4886C57.1205 97.5351 57.4329 97.4295 57.6537 97.2093L60.0212 94.8493L62.1106 96.7905C62.3296 96.9944 62.6288 97.0868 62.9227 97.0469L62.9232 97.0468C63.2188 97.0057 63.4803 96.8339 63.6352 96.5785L68.1632 89.1207C69.7766 90.029 71.1598 90.7696 72.3028 91.3816L72.3736 91.2493L72.3028 91.3816C73.8923 92.2324 75.0767 92.8666 75.9517 93.4454C76.8256 94.0236 77.375 94.5366 77.7067 95.1379C78.0459 95.7526 78.2154 96.5494 78.2912 97.7046C78.367 98.8594 78.3485 100.353 78.3235 102.354C78.311 103.342 78.2974 104.438 78.2929 105.673C72.1243 107.012 65.9254 107.69 59.8561 107.69C53.7942 107.69 47.6895 107.014 41.6968 105.678C41.6923 104.408 41.6778 103.285 41.6646 102.274C41.6389 100.293 41.6198 98.8134 41.6934 97.6704C41.767 96.527 41.9326 95.7396 42.2642 95.1344L42.1327 95.0624L42.2642 95.1344C42.5875 94.5443 43.1243 94.0416 43.9795 93.4759C44.8358 92.9095 45.9953 92.2898 47.5518 91.4583L47.5583 91.4548C48.7249 90.8317 50.1358 90.0781 51.7926 89.1435Z" fill="white" stroke="white" stroke-width="0.3"/>
</g>
<g id="Group_5">
<path id="Vector_4" d="M49.6165 70.8615C49.6165 73.4551 50.5176 77.1576 52.2782 80.2148C54.0375 83.2696 56.6796 85.719 60.1755 85.719C63.6678 85.719 66.3071 83.2695 68.0643 80.2147C69.8229 77.1576 70.7231 73.4551 70.7231 70.8615C70.7231 65.0394 65.9918 60.3026 60.1755 60.3026C54.3531 60.3026 49.6165 65.0392 49.6165 70.8615ZM51.6023 70.8615C51.6023 66.1345 55.4485 62.2885 60.1755 62.2885C64.896 62.2885 68.7372 66.1343 68.7372 70.8615C68.7372 73.0445 67.9756 76.2754 66.5134 78.9578C65.0483 81.6457 62.9095 83.7331 60.1755 83.7331C57.4377 83.7331 55.296 81.6455 53.829 78.9577C52.365 76.2752 51.6023 73.0444 51.6023 70.8615Z" fill="white" stroke="white" stroke-width="0.3"/>
</g>
<g id="Group_6">
<path id="Vector_5" d="M65.5358 84.7923C65.2547 84.8197 64.9987 84.9658 64.832 85.1936L59.1963 92.884C58.8984 93.2904 58.9522 93.8556 59.3213 94.1985C59.3213 94.1985 59.3213 94.1985 59.3213 94.1985L62.1106 96.7904L62.1107 96.7905C62.2956 96.9621 62.5374 97.056 62.7865 97.056C62.8324 97.056 62.8777 97.0527 62.9224 97.0467L62.9234 97.0466C63.219 97.0055 63.4805 96.8337 63.6354 96.5783L68.6634 88.2965C68.9091 87.8918 68.8349 87.3695 68.4857 87.0494C68.4856 87.0494 68.4856 87.0494 68.4856 87.0494L66.3042 85.0489C66.0963 84.8579 65.8181 84.7645 65.5358 84.7923ZM65.5358 84.7923C65.5358 84.7923 65.5357 84.7923 65.5357 84.7923L65.5505 84.9416L65.5359 84.7923C65.5359 84.7923 65.5359 84.7923 65.5358 84.7923ZM61.3202 93.3451L65.7787 87.2614L66.5427 87.9622L62.5698 94.5062L61.3202 93.3451Z" fill="white" stroke="white" stroke-width="0.3"/>
</g>
<g id="Group_7">
<path id="Vector_6" d="M56.0816 96.9824L56.0816 96.9824L51.3081 88.2578L51.3081 88.2578C51.0887 87.8564 51.1714 87.3567 51.5094 87.048L53.6984 85.0474L53.6984 85.0474C53.9066 84.8571 54.1843 84.7647 54.4665 84.7923L54.4669 84.7923C54.7475 84.8205 55.0029 84.9662 55.1696 85.194L55.1697 85.194L60.7984 92.8845C60.7984 92.8845 60.7984 92.8845 60.7984 92.8845C61.088 93.2802 61.0455 93.8282 60.6982 94.1744L60.6982 94.1744L57.6537 97.2087L57.6536 97.2088M56.0816 96.9824L57.6536 97.2088M56.0816 96.9824C56.2315 97.2562 56.5017 97.4439 56.8109 97.4884M56.0816 96.9824L56.8109 97.4884M57.6536 97.2088C57.4661 97.396 57.2132 97.4987 56.9527 97.4987C56.9059 97.4987 56.8584 97.4954 56.8109 97.4884M57.6536 97.2088L56.8109 97.4884M58.6922 93.3698L57.1885 94.8685L53.4243 87.9883L54.2208 87.2604L58.6922 93.3698Z" fill="white" stroke="white" stroke-width="0.3"/>
</g>
<g id="Group_8">
<path id="Vector_7" d="M52.7155 67.6381L52.7156 67.6381C53.2037 67.3889 53.8023 67.5819 54.0515 68.0705C54.6566 69.2546 55.7241 69.6679 56.5274 69.8054L52.7155 67.6381ZM52.7155 67.6381C52.2271 67.8877 52.0336 68.486 52.2832 68.9743L52.7155 67.6381ZM59.9253 69.0023L59.9255 69.0021C60.8357 68.1422 61.4679 67.5671 61.9665 67.2608C62.218 67.1063 62.447 67.0127 62.6701 66.9901C62.8971 66.9671 63.1048 67.0191 63.3092 67.1321L63.3094 67.1321C63.6706 67.3322 63.8168 67.6399 63.8592 67.9434C63.8851 68.1289 63.8727 68.3148 63.8501 68.4761C65.5236 67.9076 66.8437 67.8236 67.7495 68.2852C68.293 68.562 68.6715 69.0252 68.8414 69.6191L68.8414 69.6191C68.9921 70.1463 68.6871 70.696 68.1597 70.8468L59.9253 69.0023ZM59.9253 69.0023C59.5758 69.3338 59.0446 69.5902 58.4351 69.7356M59.9253 69.0023L58.4351 69.7356M56.1918 71.7631C54.4409 71.4629 53.0492 70.4737 52.2832 68.9744L56.1918 71.7631ZM56.1918 71.7631C56.5595 71.8262 56.9334 71.8569 57.3056 71.8569M56.1918 71.7631L57.3056 71.8569M57.3056 71.8569C58.8294 71.8569 60.3411 71.3454 61.2906 70.4446L61.1873 70.3358L61.2903 70.4448C61.5216 70.2263 61.7235 70.0389 61.8998 69.878C61.9761 70.0401 62.0875 70.1936 62.2457 70.3282C62.6046 70.6345 63.037 70.6864 63.4032 70.6534C63.7674 70.6206 64.0842 70.5023 64.2326 70.4469L64.2331 70.4467C64.2333 70.4466 64.2335 70.4466 64.2336 70.4465C64.9746 70.1759 65.5611 70.0403 65.9999 69.9926C66.4452 69.9442 66.7182 69.9887 66.8484 70.0549C66.8767 70.0693 66.8888 70.0793 66.8973 70.0892C66.906 70.0995 66.9189 70.1196 66.932 70.1652M57.3056 71.8569L66.932 70.1652M58.4351 69.7356C57.8273 69.8806 57.1534 69.9124 56.5275 69.8054L58.4351 69.7356ZM66.932 70.1652C67.0829 70.6917 67.6314 70.9989 68.1597 70.8468L66.932 70.1652Z" fill="white" stroke="white" stroke-width="0.3"/>
</g>
<g id="Group_9">
<path id="Vector_8" d="M99.5335 51.2687H103.939C104.487 51.2687 104.932 50.8242 104.932 50.2757C104.932 49.7271 104.487 49.2826 103.939 49.2826H99.5335C98.9849 49.2826 98.5404 49.7271 98.5404 50.2757C98.5404 50.8242 98.9852 51.2687 99.5335 51.2687Z" fill="white" stroke="white" stroke-width="0.3"/>
</g>
<g id="Group_10">
<path id="Vector_9" d="M99.5335 54.028H103.939C104.487 54.028 104.932 53.5835 104.932 53.0349C104.932 52.4864 104.487 52.0419 103.939 52.0419H99.5335C98.9849 52.0419 98.5404 52.4864 98.5404 53.0349C98.5404 53.5835 98.9852 54.028 99.5335 54.028Z" fill="white" stroke="white" stroke-width="0.3"/>
</g>
<g id="Group_11">
<path id="Vector_10" d="M77.82 39.7134L77.82 39.7134C79.1772 38.9909 80.8649 38.092 82.8814 36.9401L82.8815 36.9401C83.113 36.8079 83.3875 36.7742 83.6438 36.8468M77.82 39.7134L83.6029 36.9911M77.82 39.7134C76.1276 40.6146 74.8368 41.3172 73.859 41.9954C72.8788 42.6752 72.2032 43.3372 71.7475 44.1621C71.2926 44.9858 71.0644 45.9587 70.9554 47.2471C70.8466 48.5341 70.8558 50.1494 70.8839 52.262C70.9001 53.4821 70.9183 54.8645 70.9183 56.4705C70.9183 56.9321 71.2364 57.333 71.6861 57.4376C78.0675 58.9226 84.5861 59.6756 91.0605 59.6756C97.5336 59.6756 104.142 58.9231 110.702 57.439L110.669 57.2927L77.82 39.7134ZM83.6438 36.8468L83.6029 36.9911M83.6438 36.8468C83.6438 36.8468 83.6437 36.8468 83.6437 36.8468L83.6029 36.9911M83.6438 36.8468C83.9002 36.9192 84.1166 37.0914 84.2447 37.3247L84.2447 37.3247L88.3822 44.8672M83.6029 36.9911C83.8207 37.0526 84.0044 37.1988 84.1132 37.3968L88.2716 44.9774L88.3822 44.8672M88.3822 44.8672L88.4573 45.0041L90.5965 42.8718M88.3822 44.8672L90.4906 42.7656M90.4906 42.7656L90.5965 42.8718M90.4906 42.7656L90.4906 42.7656L90.5965 42.8718M90.4906 42.7656C90.8691 42.3882 91.4795 42.3785 91.8699 42.7438L91.7674 42.8533M90.5965 42.8718C90.9178 42.5515 91.436 42.5433 91.7674 42.8533M91.7674 42.8533L91.8699 42.7438M91.7674 42.8533L93.6908 44.6525L93.7703 44.5214M91.8699 42.7438L99.4273 37.0704M91.8699 42.7438L93.7703 44.5214M91.8699 42.7438L93.7703 44.5214M93.7703 44.5214L93.8822 44.6261L98.2884 37.365C98.5256 36.9743 99.0302 36.8433 99.4273 37.0704M99.4273 37.0704L99.5017 36.9402C99.5017 36.9402 99.5017 36.9401 99.5017 36.9401L99.4273 37.0704ZM82.9877 39.1626L87.2767 46.9811C87.2767 46.9811 87.2767 46.9811 87.2767 46.9811C87.427 47.2551 87.6973 47.4419 88.0064 47.4863L88.0066 47.4864C88.3135 47.53 88.6271 47.4272 88.8484 47.2067L88.8485 47.2067L91.2134 44.8489L93.3064 46.8068C93.5247 47.0113 93.8231 47.1067 94.1202 47.0655C94.1202 47.0655 94.1201 47.0655 94.12 47.0655L82.9877 39.1626ZM82.9877 39.1626C81.3396 40.0891 79.935 40.8372 78.7727 41.4563L78.7535 41.4665L78.7534 41.4665C77.1971 42.2952 76.0376 42.9128 75.1814 43.4772C74.3263 44.0409 73.7897 44.5415 73.4667 45.1289L82.9877 39.1626Z" fill="white" stroke="white" stroke-width="0.3"/>
</g>
<g id="Group_12">
<path id="Vector_11" d="M80.8115 20.8616C80.8115 23.4552 81.7117 27.1577 83.4703 30.2147C85.2275 33.2694 87.8668 35.7189 91.3589 35.7189C94.8545 35.7189 97.4966 33.2696 99.2558 30.2148C101.016 27.1577 101.917 23.4552 101.917 20.8616C101.917 15.0506 97.1808 10.3236 91.3589 10.3236C85.5429 10.3236 80.8115 15.0507 80.8115 20.8616ZM82.7974 20.8616C82.7974 16.1462 86.6381 12.3095 91.3589 12.3095C96.086 12.3095 99.9316 16.1464 99.9316 20.8616C99.9316 23.0445 99.169 26.2753 97.705 28.9577C96.2381 31.6455 94.0965 33.733 91.3589 33.733C88.6249 33.733 86.4861 31.6456 85.0211 28.9578C83.559 26.2754 82.7974 23.0445 82.7974 20.8616Z" fill="white" stroke="white" stroke-width="0.3"/>
</g>
<g id="Group_13">
<path id="Vector_12" d="M93.3065 46.8074L93.3066 46.8075C93.4918 46.9805 93.7347 47.0752 93.9849 47.0752C94.0297 47.0752 94.0749 47.0722 94.1209 47.0655C94.4171 47.0248 94.6787 46.8525 94.834 46.5972L94.834 46.5971L99.8583 38.3176L99.8583 38.3175C100.104 37.9128 100.029 37.3913 99.6808 37.0711L99.6808 37.071L97.4993 35.0683L97.4992 35.0682C97.2917 34.8781 97.0114 34.783 96.7315 34.8115C96.4505 34.8389 96.1945 34.9844 96.0275 35.2119L90.3915 42.8812C90.0933 43.2866 90.1458 43.8507 90.5132 44.1944C90.5132 44.1944 90.5132 44.1944 90.5132 44.1944L93.3065 46.8074ZM92.514 43.3465L96.9717 37.2803L97.7378 37.9835L93.7703 44.5217L92.514 43.3465Z" fill="white" stroke="white" stroke-width="0.3"/>
</g>
<g id="Group_14">
<path id="Vector_13" d="M82.5036 38.28L82.5036 38.28L87.2769 46.9812C87.2769 46.9812 87.2769 46.9812 87.2769 46.9812C87.4271 47.2551 87.6972 47.4419 88.0062 47.4864C88.0534 47.4934 88.1008 47.4967 88.1476 47.4967C88.4084 47.4967 88.6611 47.394 88.8486 47.207C88.8486 47.207 88.8486 47.207 88.8486 47.207L91.8926 44.1723L91.8927 44.1723C92.2399 43.8259 92.2825 43.2776 91.9923 42.8819L86.3675 35.2125L86.3675 35.2124C86.2008 34.9853 85.9456 34.8396 85.6651 34.8116C85.3831 34.7829 85.105 34.8768 84.8972 35.0664L84.8971 35.0664L82.7046 37.0692L82.7046 37.0692C82.3664 37.3781 82.2833 37.8783 82.5036 38.28ZM89.8861 43.3684L88.3823 44.8675L84.6203 38.0094L85.42 37.2789L89.8861 43.3684Z" fill="white" stroke="white" stroke-width="0.3"/>
</g>
<g id="Group_15">
<path id="Vector_14" d="M99.8826 19.6905C100.006 20.1396 99.7413 20.6034 99.2922 20.7262M99.8826 19.6905L93.5388 20.2249C94.1721 20.7662 95.0812 20.4342 95.3901 20.3213L95.3904 20.3212C96.8627 19.7616 97.7664 19.7566 98.0932 19.9226C98.1703 19.9617 98.2218 20.0093 98.2565 20.1359C98.3793 20.5852 98.8429 20.8495 99.2922 20.7262M99.8826 19.6905C99.7265 19.1208 99.3719 18.6811 98.857 18.4195L99.8826 19.6905ZM99.2922 20.7262L99.3318 20.8709C99.3318 20.8709 99.3319 20.8709 99.3319 20.8709M99.2922 20.7262L99.3319 20.8709M93.4413 20.339C93.2848 20.2052 93.1739 20.053 93.0973 19.8925C92.9211 20.0545 92.7191 20.2434 92.4879 20.4634L92.4877 20.4636C91.5429 21.3595 90.0372 21.8677 88.5185 21.8677C88.1486 21.8677 87.7769 21.8377 87.411 21.7753C85.6477 21.475 84.245 20.4821 83.4712 18.9761L93.4413 20.339ZM93.4413 20.339C93.7998 20.6453 94.2315 20.6993 94.5992 20.6678C94.964 20.6367 95.2836 20.5199 95.4392 20.4631L95.4418 20.4621L95.4418 20.4622L95.4437 20.4615C96.171 20.185 96.7526 20.0476 97.188 19.9989C97.6306 19.9494 97.9019 19.9937 98.0252 20.0563L98.0253 20.0563C98.0536 20.0707 98.0661 20.081 98.075 20.0918C98.0844 20.1033 98.0982 20.1256 98.1119 20.1755C98.2566 20.7047 98.8027 21.0161 99.3319 20.8709M93.4413 20.339L83.9007 17.639C84.3878 17.3886 84.9871 17.5804 85.2378 18.0686C85.8515 19.2631 86.9319 19.6794 87.7444 19.8176L87.7445 19.8176C88.3679 19.9239 89.0383 19.8925 89.6423 19.7489C90.2479 19.6049 90.7747 19.3512 91.1201 19.0237C92.0274 18.16 92.6579 17.5821 93.1554 17.2736C93.4063 17.1179 93.6348 17.0232 93.8576 16.9994C94.0843 16.9753 94.2918 17.0261 94.4962 17.1382L94.4962 17.1382C94.8647 17.3405 95.0103 17.6546 95.0506 17.9624C95.075 18.1483 95.0614 18.3344 95.0386 18.4948C95.5976 18.2978 96.2357 18.1187 96.8678 18.0383C97.592 17.9462 98.326 17.9814 98.9249 18.2858C99.4786 18.567 99.8603 19.0415 100.027 19.6509C100.172 20.1798 99.8609 20.7262 99.3319 20.8709M83.9007 17.639C83.4129 17.8897 83.2205 18.4882 83.4712 18.976L83.9007 17.639Z" fill="white" stroke="white" stroke-width="0.3"/>
</g>
<g id="Group_16">
<path id="Vector_15" d="M37.1327 51.2687H41.5605C42.1091 51.2687 42.5536 50.8242 42.5536 50.2757C42.5536 49.7271 42.1088 49.2826 41.5605 49.2826H37.1327C36.5842 49.2826 36.1397 49.7271 36.1397 50.2757C36.1397 50.8242 36.5844 51.2687 37.1327 51.2687Z" fill="white" stroke="white" stroke-width="0.3"/>
</g>
<g id="Group_17">
<path id="Vector_16" d="M37.1327 54.028H41.5605C42.1091 54.028 42.5536 53.5835 42.5536 53.0349C42.5536 52.4864 42.1088 52.0419 41.5605 52.0419H37.1327C36.5842 52.0419 36.1397 52.4864 36.1397 53.0349C36.1397 53.5835 36.5844 54.028 37.1327 54.028Z" fill="white" stroke="white" stroke-width="0.3"/>
</g>
<g id="Group_18">
<path id="Vector_17" d="M15.4363 39.7139L15.4363 39.7139C16.7951 38.9911 18.4844 38.0923 20.5033 36.9401C20.7348 36.8078 21.0098 36.7748 21.2658 36.847L21.2659 36.8471C21.5223 36.9197 21.7387 37.0922 21.8666 37.3258L25.9936 44.8663L28.1009 42.7656L28.101 42.7656C28.4805 42.3877 29.0919 42.3785 29.4821 42.7455L31.3684 44.5195L35.7713 37.2858L35.7713 37.2858C36.051 36.8264 36.6456 36.6732 37.1122 36.9399M15.4363 39.7139L37.1122 36.9399M15.4363 39.7139C13.7425 40.615 12.4506 41.3174 11.4719 41.9956C10.4909 42.6754 9.81473 43.3374 9.35871 44.1625C8.90334 44.9864 8.67497 45.9596 8.56589 47.2484C8.45693 48.5359 8.46619 50.1517 8.49423 52.265C8.5104 53.4845 8.52867 54.8657 8.52867 56.4705C8.52867 56.9322 8.84699 57.333 9.2967 57.4376C15.678 58.9226 22.1947 59.6756 28.6664 59.6756C35.1359 59.6756 41.7444 58.9231 48.3084 57.4388M15.4363 39.7139L48.3084 57.4388M37.1122 36.9399C39.0813 38.0652 40.7409 38.9526 42.0756 39.6662C43.7917 40.5837 45.1005 41.2988 46.0919 41.988C47.0857 42.6789 47.7706 43.3504 48.2329 44.1858C48.6945 45.02 48.9265 46.0043 49.038 47.3075C49.1493 48.6092 49.1412 50.2424 49.1144 52.3786L49.1136 52.4423C49.0991 53.6162 49.0826 54.9433 49.0826 56.4703C49.0826 56.9344 48.7612 57.3366 48.3084 57.4388M37.1122 36.9399L48.3084 57.4388M20.6082 39.1629L24.8865 46.9805L24.8866 46.9806C25.0368 47.2545 25.307 47.4419 25.6161 47.4866L25.6162 47.4866C25.9251 47.531 26.2376 47.4275 26.4588 47.2069C26.4588 47.2069 26.4588 47.2069 26.4588 47.2069L28.822 44.8511L30.8996 46.8054L30.8997 46.8054C31.1174 47.0102 31.4154 47.1066 31.7134 47.066C31.7134 47.066 31.7133 47.066 31.7133 47.066L20.6082 39.1629ZM20.6082 39.1629C18.9492 40.0947 17.5368 40.8462 16.3691 41.4673C14.8113 42.296 13.6508 42.9135 12.7939 43.478C11.938 44.0417 11.4009 44.5425 11.0777 45.1302L11.0777 45.1302C10.7464 45.7322 10.581 46.5159 10.5077 47.6543C10.4345 48.7923 10.4539 50.2655 10.4801 52.2388L10.4801 52.2388L10.4809 52.303C10.4941 53.3061 10.5088 54.4196 10.5132 55.6781C16.5019 57.0131 22.6052 57.6898 28.6662 57.6898C34.7343 57.6898 40.9313 57.0115 47.0981 55.6732C47.1025 54.4376 47.1161 53.341 47.1286 52.3539C47.1536 50.3567 47.1721 48.8656 47.0968 47.7131C47.0214 46.5603 46.8527 45.7654 46.5153 45.153C46.1856 44.5544 45.6392 44.044 44.7697 43.4692C43.8992 42.8936 42.7207 42.2635 41.1392 41.4179C39.9881 40.8026 38.5952 40.0579 36.967 39.1412L32.4281 46.5983M20.6082 39.1629L32.4281 46.5983M32.4281 46.5983C32.4281 46.5983 32.4281 46.5983 32.428 46.5984L32.4281 46.5983Z" fill="white" stroke="white" stroke-width="0.3"/>
</g>
<g id="Group_19">
<path id="Vector_18" d="M18.4329 20.8616C18.4329 23.4552 19.333 27.1577 21.0917 30.2147C22.8489 33.2695 25.4882 35.7189 28.9805 35.7189C32.4726 35.7189 35.1119 33.2694 36.8692 30.2147C38.6278 27.1577 39.5279 23.4552 39.5278 20.8616C39.5278 15.0507 34.7962 10.3236 28.9805 10.3236C23.1645 10.3236 18.4329 15.0507 18.4329 20.8616ZM20.4187 20.8616C20.4187 16.1462 24.2594 12.3095 28.9805 12.3095C33.7015 12.3095 37.542 16.1462 37.542 20.8616C37.542 23.0445 36.7804 26.2754 35.3183 28.9578C33.8532 31.6456 31.7144 33.733 28.9805 33.733C26.2465 33.733 24.1076 31.6456 22.6425 28.9578C21.1804 26.2754 20.4187 23.0445 20.4187 20.8616Z" fill="white" stroke="white" stroke-width="0.3"/>
</g>
<g id="Group_20">
<path id="Vector_19" d="M34.3288 34.8113L34.3288 34.8113C34.0481 34.839 33.7927 34.9848 33.626 35.2122L28.001 42.8816C28.001 42.8816 28.001 42.8817 28.001 42.8817C27.7042 43.2861 27.7559 43.8485 28.1214 44.1922C28.1214 44.1922 28.1214 44.1922 28.1214 44.1922L30.8996 46.8052C31.0849 46.9798 31.3288 47.075 31.58 47.075C31.6233 47.075 31.6684 47.0723 31.7141 47.0655C32.0101 47.025 32.2725 46.8534 32.4279 46.5979L37.4673 38.3185C37.4674 38.3185 37.4674 38.3185 37.4674 38.3184C37.7144 37.9129 37.6396 37.3892 37.289 37.0689L35.0964 35.0662L35.0964 35.0661C34.8882 34.8762 34.6099 34.7838 34.3288 34.8113ZM30.1221 43.3477L34.5735 37.2786L35.3462 37.9846L31.3682 44.5199L30.1221 43.3477Z" fill="white" stroke="white" stroke-width="0.3"/>
</g>
<g id="Group_21">
<path id="Vector_20" d="M24.8863 46.9809L24.8863 46.9808L20.1242 38.2796L20.1242 38.2796C19.9053 37.8793 19.987 37.381 20.3233 37.072C20.3233 37.072 20.3233 37.072 20.3233 37.072L22.501 35.0693C22.7083 34.8786 22.987 34.7836 23.2697 34.812C23.5506 34.8394 23.8067 34.9851 23.9737 35.2128C23.9737 35.2128 23.9737 35.2128 23.9737 35.2129L29.6022 42.8823C29.8926 43.2779 29.8504 43.8265 29.5028 44.173C29.5028 44.173 29.5028 44.173 29.5028 44.173L26.4587 47.2076L26.4587 47.2077C26.2712 47.3944 26.0183 47.497 25.7575 47.497C25.7107 47.497 25.6631 47.4937 25.6156 47.4868M24.8863 46.9809L25.6156 47.4868M24.8863 46.9809C25.0364 47.2546 25.3066 47.442 25.6156 47.4868M24.8863 46.9809L25.6156 47.4868M27.4963 43.369L25.9936 44.8671L22.2395 38.0079L23.029 37.2818L27.4963 43.369Z" fill="white" stroke="white" stroke-width="0.3"/>
</g>
<g id="Group_22">
<path id="Vector_21" d="M25.3686 19.8194L25.3686 19.8194C25.9894 19.9239 26.6564 19.8914 27.2571 19.7477C27.8594 19.6035 28.383 19.3504 28.726 19.0244L28.7261 19.0243C29.6375 18.1597 30.2707 17.5814 30.7697 17.2729C31.0214 17.1172 31.2505 17.0226 31.4736 16.9993C31.7007 16.9755 31.9084 17.0268 32.1127 17.1395L32.1127 17.1395C32.4789 17.3415 32.6243 17.6539 32.6648 17.9605C32.6893 18.1457 32.676 18.3312 32.6531 18.4916C33.2097 18.2948 33.8449 18.1163 34.4751 18.0364C35.1979 17.9448 35.9315 17.9807 36.533 18.2854L36.4653 18.4193L36.533 18.2855C37.088 18.5666 37.4709 19.0408 37.6381 19.6506L37.6381 19.6506C37.7831 20.1795 37.472 20.7259 36.9432 20.8709L36.9432 20.8709C36.414 21.0158 35.8679 20.7047 35.7229 20.176L35.7229 20.1758C35.7094 20.1263 35.6957 20.1043 35.6863 20.093C35.6773 20.0821 35.6646 20.0717 35.6357 20.057C35.553 20.0151 35.4284 19.9858 35.2595 19.9772C35.0924 19.9686 34.8914 19.9808 34.6627 20.0145C34.2052 20.0817 33.6486 20.2328 33.0522 20.4608L33.0502 20.4616L33.0502 20.4616L33.0479 20.4624C32.8918 20.5196 32.5719 20.6366 32.207 20.6678C31.8395 20.6993 31.4083 20.6452 31.0504 20.3388L31.0504 20.3388C30.8941 20.2049 30.7833 20.0526 30.7071 19.8918C30.5297 20.0543 30.3264 20.2438 30.0935 20.4647L25.3686 19.8194ZM25.3686 19.8194C24.5534 19.6823 23.4679 19.2665 22.8468 18.0661L25.3686 19.8194ZM25.0389 21.7776C25.3996 21.8384 25.7658 21.8676 26.1303 21.8676C27.6476 21.8676 29.1521 21.3588 30.0934 20.4647L25.0389 21.7776ZM25.0389 21.7776C23.2721 21.4804 21.8636 20.4874 21.0829 18.9785L25.0389 21.7776ZM21.5086 17.6403C21.0214 17.8924 20.8308 18.4915 21.0829 18.9785L22.8468 18.066C22.5947 17.5784 21.9953 17.3886 21.5086 17.6403Z" fill="white" stroke="white" stroke-width="0.3"/>
</g>
<g id="Group_23">
<path id="Vector_22" d="M49.6165 70.8615C49.6165 73.4551 50.5176 77.1576 52.2782 80.2148C54.0375 83.2696 56.6796 85.719 60.1755 85.719C63.6678 85.719 66.3071 83.2695 68.0643 80.2147C69.8229 77.1576 70.7231 73.4551 70.7231 70.8615C70.7231 65.0394 65.9918 60.3026 60.1755 60.3026C54.3531 60.3026 49.6165 65.0392 49.6165 70.8615ZM51.6023 70.8615C51.6023 66.1345 55.4485 62.2885 60.1755 62.2885C64.896 62.2885 68.7372 66.1343 68.7372 70.8615C68.7372 73.0445 67.9756 76.2754 66.5134 78.9578C65.0483 81.6457 62.9095 83.7331 60.1755 83.7331C57.4377 83.7331 55.296 81.6455 53.829 78.9577C52.365 76.2752 51.6023 73.0444 51.6023 70.8615Z" fill="white" stroke="white" stroke-width="0.3"/>
</g>
<g id="Group_24">
<path id="Vector_23" d="M59.3233 94.2012L59.3232 94.2012C59.1113 94.0052 59.0038 93.7383 59.0041 93.4707L59.1541 93.4709H59.0041C59.0041 93.2302 59.0915 92.9886 59.2677 92.7977L59.2678 92.7976C59.6401 92.395 60.2684 92.3697 60.671 92.7419C60.6711 92.7419 60.6711 92.742 60.6711 92.742L61.7883 93.7736L61.7884 93.7737C62.0003 93.9696 62.1077 94.2365 62.1075 94.504C62.1075 94.5041 62.1075 94.5041 62.1075 94.5042L61.9575 94.504C61.9575 94.7084 61.8834 94.9132 61.7339 95.0754L59.3233 94.2012ZM59.3233 94.2012L60.4405 95.2329L59.3233 94.2012Z" fill="white" stroke="white" stroke-width="0.3"/>
</g>
<g id="Group_25">
<path id="Vector_24" d="M54.2209 87.2607L59.1956 94.0578C59.3825 94.3135 59.6802 94.4645 59.9969 94.4645C60.3135 94.4645 60.6109 94.3137 60.7978 94.0583L65.7786 87.2618L67.1432 88.5131C67.1969 88.5624 67.2555 88.6055 67.3188 88.642L67.3189 88.642C69.2259 89.7402 70.849 90.6061 72.1519 91.301L72.1929 91.3229C72.7971 91.6453 73.3461 91.9383 73.8464 92.2132C73.8464 92.2132 73.8464 92.2133 73.8465 92.2133L73.9187 92.0818C74.155 92.2119 74.4393 92.2208 74.6833 92.106M54.2209 87.2607L74.7471 92.2417M54.2209 87.2607L52.8491 88.5145L52.849 88.5146C52.796 88.5629 52.7378 88.6057 52.6749 88.6418M54.2209 87.2607L73.4663 45.1293M74.6833 92.106L74.747 92.2417C74.7471 92.2417 74.7471 92.2417 74.7471 92.2417M74.6833 92.106L74.7471 92.2417M74.6833 92.106C80.5513 89.3485 85.5193 85.0114 89.05 79.5639C92.6755 73.9696 94.592 67.4708 94.592 60.7696C94.592 60.0228 94.5716 59.3106 94.5299 58.5922C94.5034 58.1359 94.1162 57.7841 93.6613 57.7986C86.7029 58.0208 79.6719 57.3479 72.7532 55.7982M74.7471 92.2417C80.6405 89.4723 85.63 85.1165 89.1758 79.6454C92.8172 74.0267 94.742 67.4996 94.742 60.7696C94.742 60.02 94.7215 59.3049 94.6796 58.5835C94.6484 58.0457 94.1924 57.6316 93.6565 57.6487C86.7501 57.8692 79.7717 57.2064 72.9028 55.6779M72.7532 55.7982L72.9032 55.7978C72.903 55.7577 72.9029 55.7177 72.9028 55.6779M72.7532 55.7982C72.749 54.4632 72.7335 53.2902 72.7194 52.2378V52.2376C72.6672 48.2974 72.6409 46.3196 73.3349 45.0571M72.7532 55.7982L72.786 55.6519C72.8249 55.6606 72.8638 55.6693 72.9028 55.6779M72.9028 55.6779L73.3349 45.0571M73.4663 45.1293C73.4663 45.1293 73.4663 45.1293 73.4663 45.1293L73.3349 45.0571M73.4663 45.1293L73.3349 45.0571M73.4663 45.1293C73.7894 44.5419 74.326 44.0412 75.1811 43.4775C76.0373 42.9132 77.1968 42.2956 78.7531 41.4669L78.758 41.4643C80.1243 40.7368 81.8261 39.8306 83.8661 38.6653C83.9349 38.6262 83.9984 38.5789 84.0556 38.525L84.0558 38.5249L84.7701 37.8503L84.6671 37.7413L84.7701 37.8503C84.9639 37.6673 85.0761 37.4141 85.081 37.1473M85.081 37.1473C85.081 37.1474 85.081 37.1475 85.081 37.1475L84.931 37.1446L85.081 37.1473ZM85.081 37.1473C85.0862 36.881 84.9841 36.6235 84.7972 36.4332M84.7972 36.4332C78.2095 29.7187 69.4016 26.0204 59.9971 26.0204C50.5942 26.0204 41.7844 29.7184 35.1928 36.4329M84.7972 36.4332C84.7972 36.4332 84.7971 36.4331 84.7971 36.4331L84.6901 36.5382M84.7972 36.4332L84.6901 36.5382M35.1928 36.4329C35.0057 36.6234 34.903 36.8815 34.9085 37.1486C34.914 37.4158 35.0269 37.6695 35.2216 37.8523L35.9399 38.5268L35.94 38.5269C35.9968 38.5801 36.0594 38.6264 36.1271 38.6651L36.2015 38.5349M35.1928 36.4329L35.2999 36.538M35.1928 36.4329C35.1928 36.4329 35.1929 36.4329 35.1929 36.4329L35.2999 36.538M36.2015 38.5349L36.1271 38.6651C38.1206 39.8041 39.7954 40.6996 41.1396 41.4182C42.7212 42.2638 43.8996 42.894 44.7701 43.4695C45.6396 44.0443 46.186 44.5547 46.5157 45.1533C46.8531 45.7658 47.0218 46.5607 47.0972 47.7135C47.1725 48.866 47.154 50.3571 47.129 52.3543C47.1165 53.3414 47.1029 54.438 47.0985 55.6735M36.2015 38.5349C38.193 39.6728 39.8662 40.5674 41.2103 41.286L41.2126 41.2872C44.3691 42.9748 45.9535 43.822 46.6471 45.081C47.354 46.3641 47.3289 48.3665 47.279 52.3558L47.279 52.3562C47.2661 53.3753 47.252 54.5103 47.2481 55.7945M36.2015 38.5349C36.1441 38.5021 36.0909 38.4627 36.0426 38.4174L35.3242 37.7429C35.159 37.5878 35.0631 37.3724 35.0585 37.1455C35.0538 36.9188 35.141 36.6997 35.2999 36.538M47.0985 55.6735C40.1689 57.1784 33.1788 57.8484 26.3197 57.6693L26.3175 57.6693C25.784 57.6632 25.3254 58.0754 25.3018 58.6187C25.2767 59.195 25.2478 59.9614 25.2478 60.7696C25.2478 67.4996 27.1725 74.027 30.8146 79.6454C34.3612 85.1167 39.3519 89.4724 45.2469 92.242L45.2472 92.2421C45.532 92.3753 45.8636 92.3669 46.1413 92.2166M47.0985 55.6735C47.0983 55.7136 47.0982 55.7537 47.0981 55.794L47.2481 55.7945M47.0985 55.6735C47.1376 55.665 47.1768 55.6565 47.216 55.6479L47.2481 55.7945M46.1413 92.2166C46.5173 92.0132 46.9231 91.7971 47.3602 91.5643L47.4015 91.5423C48.8062 90.7943 50.5564 89.8621 52.6749 88.6418M46.1413 92.2166L46.0699 92.0846M46.1413 92.2166C46.1412 92.2166 46.1412 92.2166 46.1412 92.2166L46.0699 92.0846M52.6749 88.6418L52.6 88.5118M52.6749 88.6418C52.6748 88.6419 52.6746 88.6419 52.6745 88.642L52.6 88.5118M52.6 88.5118C50.4838 89.7308 48.7356 90.662 47.331 91.4099L47.2901 91.4316C46.8529 91.6645 46.4465 91.881 46.0699 92.0846M52.6 88.5118L84.6901 36.5382M46.0699 92.0846C45.8343 92.2121 45.5528 92.2194 45.3107 92.1062C39.441 89.3485 34.4718 85.0117 30.9405 79.5639C27.3142 73.9698 25.3978 67.4708 25.3978 60.7696C25.3978 59.9647 25.4266 59.2009 25.4517 58.6253C25.4716 58.1661 25.86 57.8141 26.3158 57.8192C33.2261 57.9997 40.2686 57.3198 47.2481 55.7945M35.2999 36.538C41.8633 29.8522 50.6345 26.1704 59.9971 26.1704C69.3613 26.1704 78.1307 29.8524 84.6901 36.5382M55.0483 85.2831L55.1693 85.1945L59.9974 91.7912L64.8319 85.194L64.832 85.1939L55.0483 85.2831ZM55.0483 85.2831L55.1693 85.1945C55.0026 84.9667 54.7472 84.821 54.4665 84.7928M55.0483 85.2831L54.4665 84.7928M54.4665 84.7928C54.4337 84.7895 54.4008 84.7878 54.3681 84.7878M54.4665 84.7928L54.3681 84.7878M54.3681 84.7878C54.1217 84.7878 53.8823 84.8797 53.699 85.0474L54.3681 84.7878ZM65.5356 84.7928L65.5504 84.9421L66.304 85.0492C66.0962 84.8583 65.8181 84.765 65.5359 84.7928C65.5358 84.7928 65.5357 84.7928 65.5356 84.7928ZM68.4047 86.9758L66.3041 85.0493L53.6989 85.0475L51.5901 86.9748C49.5426 88.152 47.841 89.0583 46.4683 89.7894L46.3053 89.8762C46.0762 89.9982 45.8556 90.1157 45.6433 90.2294C34.4438 84.7574 27.2339 73.2485 27.2339 60.7693C27.2339 60.391 27.2405 60.0201 27.2502 59.6745C27.6779 59.681 28.1061 59.6842 28.5314 59.6842H28.5314H28.5314H28.5315H28.5315H28.5315H28.5315H28.5316H28.5316H28.5316H28.5317H28.5317H28.5317H28.5318H28.5318H28.5318H28.5318H28.5319H28.5319H28.5319H28.532H28.532H28.532H28.532H28.5321H28.5321H28.5321H28.5322H28.5322H28.5322H28.5322H28.5323H28.5323H28.5323H28.5324H28.5324H28.5324H28.5325H28.5325H28.5325H28.5325H28.5326H28.5326H28.5326H28.5327H28.5327H28.5327H28.5328C35.0711 59.6842 41.7256 58.9286 48.3091 57.4394L48.3091 57.4394C48.7616 57.337 49.083 56.935 49.083 56.4709C49.083 54.9448 49.0994 53.6184 49.114 52.445L49.1148 52.3792C49.1416 50.243 49.1497 48.6098 49.0384 47.3081C48.9269 46.0049 48.6949 45.0206 48.2333 44.1864C47.7711 43.351 47.0861 42.6795 46.0923 41.9886C45.1009 41.2993 43.7921 40.5843 42.076 39.6668L42.076 39.6668C40.7976 38.9835 39.2215 38.1407 37.3609 37.0824C43.4868 31.2208 51.4831 28.006 59.9971 28.006C68.5127 28.006 76.5087 31.2216 82.6306 37.0839C80.7246 38.1675 79.1208 39.0216 77.8202 39.714L77.8907 39.8464L77.8202 39.714C76.1278 40.6152 74.8369 41.3178 73.8591 41.996C72.8789 42.6758 72.2033 43.3378 71.7477 44.1627C71.2927 44.9864 71.0646 45.9593 70.9556 47.2477C70.8467 48.5347 70.856 50.15 70.8841 52.2626C70.9002 53.4827 70.9185 54.8651 70.9185 56.4711C70.9185 56.9327 71.2368 57.3339 71.6869 57.4383C78.0833 58.9234 84.5915 59.6767 91.0311 59.6767C91.5974 59.6767 92.1691 59.6709 92.7397 59.6594C92.7507 60.0238 92.7561 60.3921 92.7561 60.7698C92.7561 73.2472 85.5494 84.755 74.3539 90.2283C73.9679 90.0192 73.5552 89.799 73.1149 89.5641L73.0868 89.549L73.0867 89.549C71.8165 88.8716 70.2429 88.0319 68.4047 86.9758Z" fill="white" stroke="white" stroke-width="0.3"/>
</g>
<g id="Group_26">
<path id="Vector_25" d="M49.6165 70.8615C49.6165 73.4551 50.5176 77.1576 52.2782 80.2148C54.0375 83.2696 56.6796 85.719 60.1755 85.719C63.6678 85.719 66.3071 83.2695 68.0643 80.2147C69.8229 77.1576 70.7231 73.4551 70.7231 70.8615C70.7231 65.0394 65.9918 60.3026 60.1755 60.3026C54.3531 60.3026 49.6165 65.0392 49.6165 70.8615ZM51.6023 70.8615C51.6023 66.1345 55.4485 62.2885 60.1755 62.2885C64.896 62.2885 68.7372 66.1343 68.7372 70.8615C68.7372 73.0445 67.9756 76.2754 66.5134 78.9578C65.0483 81.6457 62.9095 83.7331 60.1755 83.7331C57.4377 83.7331 55.296 81.6455 53.829 78.9577C52.365 76.2752 51.6023 73.0444 51.6023 70.8615Z" fill="white" stroke="white" stroke-width="0.3"/>
</g>
<g id="Group_27">
<path id="Vector_26" d="M66.3048 85.049C66.0969 84.858 65.8187 84.7646 65.5364 84.7925C65.2553 84.8199 64.9995 84.966 64.8328 85.1937C64.8327 85.1937 64.8327 85.1937 64.8327 85.1937L59.9982 91.7909L55.1701 85.1942L55.0491 85.2828L55.1701 85.1942C55.0033 84.9664 54.7479 84.8207 54.4673 84.7925L54.4669 84.7925C54.1866 84.7652 53.9072 84.8572 53.6989 85.0476L53.8001 85.1583L53.6989 85.0476L51.5907 86.9744C49.6019 88.1123 47.9378 89.0007 46.5951 89.717L46.6657 89.8493L46.5951 89.717L46.5875 89.721C44.8088 90.6703 43.4637 91.3881 42.4595 92.1064C41.502 92.7913 40.8449 93.483 40.4089 94.387C28.4641 87.4131 21.0918 74.6385 21.0918 60.7695C21.0918 60.0452 21.1142 59.2643 21.1629 58.3115L21.1629 58.3115C21.1908 57.764 20.7692 57.2972 20.2217 57.2693L20.2217 57.2693L20.2213 57.2693C19.6742 57.2431 19.2077 57.6626 19.1795 58.2104L19.1795 58.2105C19.1295 59.1962 19.106 60.0095 19.106 60.7695C19.106 75.7554 27.2938 89.5245 40.4739 96.7034M40.4739 96.7034C40.4739 96.7034 40.4739 96.7034 40.4738 96.7034L40.5457 96.5717L40.4739 96.7034ZM67.395 88.5125L67.3203 88.6426C69.3279 89.7946 71.011 90.6968 72.3625 91.4213L72.3674 91.4239C74.4723 92.5521 75.788 93.2744 76.6371 93.943C77.4742 94.6021 77.8489 95.2021 78.0703 96.0918C78.1445 96.3902 78.3527 96.6376 78.6344 96.7613C78.7619 96.8173 78.898 96.8452 79.0338 96.8452C79.1978 96.8452 79.3609 96.8049 79.5092 96.7244L79.5094 96.7243C92.6962 89.5419 100.888 75.7645 100.888 60.7695C100.888 59.8348 100.847 58.8989 100.811 58.1897C100.783 57.6411 100.311 57.2214 99.7693 57.2482L99.7691 57.2482C99.2215 57.2761 98.7999 57.7425 98.8277 58.2901C98.8277 58.2901 98.8277 58.2901 98.8277 58.2902L98.9775 58.2825C99.0122 58.9714 99.0523 59.8765 99.0523 60.7695C99.0523 74.7075 91.6425 87.5438 79.6356 94.546C79.6149 94.4999 79.5937 94.4544 79.5719 94.4095C79.5286 94.4347 79.4852 94.4599 79.4418 94.485L67.395 88.5125Z" fill="white" stroke="white" stroke-width="0.3"/>
</g>
<g id="Group_28">
<path id="Vector_27" d="M15.3538 70.6691L15.3538 70.669C15.2386 70.1329 15.5799 69.605 16.116 69.4897C16.6532 69.374 17.1803 69.7156 17.2954 70.2519M15.3538 70.6691L31.3389 95.3261C31.3389 95.3261 31.3389 95.3261 31.3389 95.3261M15.3538 70.6691C17.3996 80.1869 22.5789 88.9763 29.9378 95.4189M15.3538 70.6691L29.9378 95.4189M17.2954 70.2519L17.1488 70.2834L17.2954 70.2519C17.2954 70.2519 17.2954 70.2519 17.2954 70.2519ZM17.2954 70.2519C19.2517 79.3543 24.2062 87.7616 31.2459 93.9249L31.1471 94.0378L31.2459 93.9249C31.6585 94.2863 31.7003 94.9135 31.3389 95.3261M31.3389 95.3261C31.1427 95.5503 30.8675 95.6648 30.5916 95.6648C30.3596 95.6648 30.1261 95.5839 29.9378 95.4189M31.3389 95.3261L29.9378 95.4189M29.9378 95.4189C29.9377 95.4188 29.9377 95.4188 29.9377 95.4188L30.0366 95.306L29.9378 95.4189Z" fill="white" stroke="white" stroke-width="0.3"/>
</g>
<g id="Group_29">
<path id="Vector_28" d="M85.5094 96.5017C85.0649 96.823 84.9652 97.4439 85.2863 97.8881L85.2864 97.8883L85.5973 96.6232M85.5094 96.5017L85.5973 96.6232M85.5094 96.5017C85.5094 96.5017 85.5094 96.5017 85.5094 96.5017L85.5973 96.6232M85.5094 96.5017C90.7256 92.73 95.1144 87.7921 98.2013 82.2232M85.5973 96.6232C90.8311 92.8388 95.2348 87.8843 98.3325 82.2959M98.2013 82.2232C98.2013 82.2232 98.2013 82.2232 98.2013 82.2233L98.3325 82.2959M98.2013 82.2232C98.467 81.7434 99.0718 81.57 99.5512 81.8362M98.2013 82.2232L98.3325 82.2959M98.3325 82.2959L99.5512 81.8362M99.4784 81.9673L99.5512 81.8362L99.4784 81.9673ZM99.4784 81.9673L99.5511 81.8361C99.5511 81.8361 99.5511 81.8361 99.5512 81.8362M99.4784 81.9673L99.5512 81.8362" fill="white" stroke="white" stroke-width="0.3"/>
</g>
<g id="Group_30">
<path id="Vector_29" d="M102.405 75.1192L102.405 75.1193C102.501 75.1486 102.599 75.163 102.696 75.163C103.121 75.163 103.514 74.8886 103.645 74.4613L103.645 74.4613C104.976 70.1248 105.65 65.6173 105.65 61.0638C105.65 60.5152 105.205 60.0707 104.657 60.0707C104.108 60.0707 103.664 60.5155 103.664 61.0638C103.664 65.4198 103.019 69.7313 101.747 73.8787C101.586 74.4028 101.88 74.9585 102.405 75.1192Z" fill="white" stroke="white" stroke-width="0.3"/>
</g>
</g>
</g>
</g>
</svg>
