<svg width="90" height="90" viewBox="0 0 90 90" fill="none" xmlns="http://www.w3.org/2000/svg">
<g id="15860344541683177329 2">
<g id="Layer_x0020_1">
<path id="Vector" fill-rule="evenodd" clip-rule="evenodd" d="M14.2004 21.1616L58.7257 0.151878C59.7383 -0.329067 60.9027 0.417664 60.9027 1.53143V11.8971L67.7498 10.5428C68.6864 10.353 69.5723 11.087 69.5723 12.0489V21.035H75.1791C76.0271 21.035 76.7106 21.7185 76.7106 22.5664V88.4686C76.7106 89.3166 76.0271 90 75.1791 90H14.8205C13.9852 90 13.3018 89.3166 13.3018 88.4686V22.5664C13.3018 21.9336 13.6435 21.4274 14.2004 21.1616ZM68.0409 24.0852H16.352V86.9498H73.6477V24.0852H68.0409ZM66.3323 44.5H23.68C22.8321 44.5 22.1486 43.8166 22.1486 42.9812V29.4769C22.1486 28.6415 22.8321 27.9581 23.68 27.9581H66.3323C67.1676 27.9581 67.851 28.6415 67.851 29.4769V42.9812C67.851 43.8166 67.1676 44.5 66.3323 44.5ZM25.1988 41.4498H64.8008V31.0083H25.1988V41.4498ZM30.4386 21.035H66.5095V13.9094L30.4386 21.035ZM26.6543 18.6683L57.8525 12.5046V3.93616L26.6543 18.6683Z" fill="black"/>
</g>
<g id="Multimedia-(Stroke)">
<g id="20-multimeda-video-collection">
<path id="Layer-1" fill-rule="evenodd" clip-rule="evenodd" d="M67.5385 60.8723H36V88.4255H67.5385V60.8723Z" stroke="black" stroke-width="2.5" stroke-linecap="round" stroke-linejoin="round"/>
<path id="Layer-2" fill-rule="evenodd" clip-rule="evenodd" d="M47.8271 69.0697C47.8271 68.4191 48.2812 68.1636 48.8397 68.4982L57.7866 73.8579C58.3458 74.193 58.3451 74.7365 57.7866 75.0711L48.8397 80.4309C48.2805 80.7659 47.8271 80.5059 47.8271 79.8593V69.0697Z" stroke="black" stroke-width="2.5" stroke-linecap="round" stroke-linejoin="round"/>
<path id="Layer-3" fill-rule="evenodd" clip-rule="evenodd" d="M71.4808 58.9042V56.9362H39.9424V60.8723H67.5385V84.4893H71.4808V58.9042Z" stroke="black" stroke-width="2.5" stroke-linecap="round" stroke-linejoin="round"/>
<path id="Layer-4" fill-rule="evenodd" clip-rule="evenodd" d="M75.4232 54.9681V53H43.8848V56.9362H71.4809V80.5532H75.4232V54.9681Z" stroke="black" stroke-width="2.5" stroke-linecap="round" stroke-linejoin="round"/>
</g>
</g>
</g>
</svg>
